<?xml version="1.0" standalone="no"?>
<!DOCTYPE svg PUBLIC "-//W3C//DTD SVG 20010904//EN"
 "http://www.w3.org/TR/2001/REC-SVG-20010904/DTD/svg10.dtd">
<svg version="1.0" xmlns="http://www.w3.org/2000/svg"
 width="167.000000pt" height="167.000000pt" viewBox="0 0 167.000000 167.000000"
 preserveAspectRatio="xMidYMid meet">

<g transform="translate(0.000000,167.000000) scale(0.100000,-0.100000)"
fill="#000000" stroke="none">
<path d="M593 1600 c-32 -13 -43 -41 -43 -110 0 -56 3 -65 30 -90 19 -18 28
-34 24 -44 -3 -9 -63 -63 -133 -121 -70 -57 -133 -116 -140 -131 -9 -20 -12
-148 -11 -487 0 -514 -1 -503 70 -539 32 -16 75 -18 453 -18 472 0 471 0 507
71 19 36 20 62 20 479 0 492 0 489 -67 536 -21 14 -105 65 -188 112 -92 54
-151 94 -153 105 -2 10 7 26 22 38 24 19 26 27 26 94 0 68 -2 75 -26 94 -25
19 -39 21 -198 20 -94 0 -181 -4 -193 -9z m372 -105 l0 -60 -182 -3 c-120 -2
-183 1 -184 8 0 5 0 30 0 55 0 25 0 50 0 55 1 7 64 10 184 8 l182 -3 0 -60z
m-47 -144 c13 -37 43 -58 230 -165 84 -49 157 -96 162 -106 6 -12 10 -196 10
-474 l0 -455 -26 -20 c-26 -20 -37 -21 -450 -21 -232 0 -430 3 -439 6 -43 17
-45 40 -45 503 0 295 4 448 11 463 6 13 58 61 116 108 120 97 163 142 163 170
0 19 7 20 129 20 l129 0 10 -29z"/>
<path d="M1062 1094 c-22 -15 -22 -19 -22 -229 0 -210 0 -214 22 -229 30 -21
126 -21 156 0 21 15 22 20 22 199 0 156 -2 186 -16 200 -13 13 -126 75 -136
75 -2 0 -14 -7 -26 -16z m136 -259 l2 -165 -55 0 -55 0 0 195 0 195 53 -30 52
-30 3 -165z"/>
</g>
</svg>
